<svg version="1.1" id="Layer_1" xmlns="http://www.w3.org/2000/svg" xmlns:xlink="http://www.w3.org/1999/xlink" x="0px" y="0px"
	 width="100%" viewBox="0 0 802 202" enable-background="new 0 0 802 202" xml:space="preserve">
<path fill="#2A2B48" opacity="1.000000" stroke="none" 
	d="
M591.000000,203.000000 
	C394.000031,203.000000 197.500046,203.000000 1.000053,203.000000 
	C1.000035,135.666702 1.000035,68.333397 1.000018,1.000071 
	C268.333282,1.000047 535.666565,1.000047 802.999878,1.000024 
	C802.999878,68.333260 802.999878,135.666519 802.999939,202.999893 
	C732.500000,203.000000 662.000000,203.000000 591.000000,203.000000 
M413.964783,107.627060 
	C414.105988,106.942757 414.247192,106.258453 414.388428,105.574150 
	C413.898285,105.792900 413.408173,106.011658 412.241364,106.178589 
	C411.797607,106.109749 411.353851,106.040901 410.432922,105.941582 
	C410.432922,105.941582 409.960602,106.016335 409.082489,106.032066 
	C408.723511,103.090523 408.251190,100.157593 408.026825,97.205818 
	C407.364441,88.491318 402.347229,81.689720 395.169098,81.118202 
	C388.609039,80.595901 381.974640,81.007439 375.145813,81.007439 
	C375.145813,94.160522 375.145813,107.064796 375.145813,119.935768 
	C382.158600,119.935768 389.170471,120.555588 395.983032,119.659630 
	C399.124786,119.246422 402.064484,116.084984 404.738586,113.758934 
	C406.488953,112.236343 407.598694,109.977264 409.053253,108.821602 
	C410.443573,109.509186 411.833862,110.196770 413.726776,110.787453 
	C413.465027,110.339622 413.203278,109.891785 412.908478,109.547958 
	C412.908478,109.547958 413.009155,109.589973 413.451019,108.853447 
	C413.483551,108.569038 413.516083,108.284630 413.964783,107.627060 
M135.657059,47.388180 
	C134.331024,46.701851 132.981323,46.057354 131.682465,45.322952 
	C111.114090,33.692997 111.115242,33.671562 87.575081,34.104362 
	C85.993233,34.133442 84.184364,34.375118 82.882561,35.172974 
	C65.896248,45.583588 48.949055,56.059803 32.118484,66.719193 
	C30.870001,67.509903 29.888374,69.875496 29.988188,71.431633 
	C30.327625,76.723648 30.959425,82.031258 32.011364,87.225212 
	C32.397526,89.131897 33.876873,91.405289 35.525307,92.367905 
	C43.268318,96.889435 51.246078,101.008614 59.135464,105.279884 
	C76.930267,114.913895 94.722374,124.552902 112.954643,134.734299 
	C114.618507,135.537399 116.282372,136.340515 118.357201,137.694565 
	C125.311798,141.405014 131.684494,139.330215 137.544495,131.230698 
	C104.933281,113.580132 72.361191,95.950745 39.227962,78.017654 
	C40.803032,76.754364 42.057983,75.489777 43.538242,74.600006 
	C60.735725,64.262718 78.012299,54.055916 95.141922,43.607960 
	C97.764061,42.008629 99.573334,41.812077 102.317474,43.326962 
	C113.060875,49.257793 123.978836,54.872414 135.307266,61.039116 
	C145.334366,66.467781 155.361465,71.896439 166.166229,77.746132 
	C166.460556,73.213135 166.826797,69.465996 166.854568,65.716354 
	C166.860931,64.857201 165.893494,63.629410 165.050018,63.180660 
	C155.404129,58.048874 145.695435,53.035095 135.657059,47.388180 
M157.207550,136.732178 
	C139.993637,147.429825 122.779739,158.127472 106.204567,168.428162 
	C82.389305,155.995651 59.065281,143.819595 34.727840,131.114502 
	C35.116703,135.101746 35.819294,137.894791 35.557098,140.594116 
	C35.100681,145.292969 37.029598,147.761337 41.179691,149.814331 
	C51.146011,154.744522 61.234097,159.600784 70.579117,165.572769 
	C83.349075,173.733521 96.675293,178.374130 111.900291,176.130096 
	C114.592705,175.733261 117.514114,175.271347 119.789688,173.925980 
	C135.368210,164.715668 150.734680,155.146072 166.333099,145.970413 
	C170.065018,143.775146 171.906616,141.448837 171.440567,136.948059 
	C170.979553,132.495880 171.197083,127.952393 171.392426,123.460945 
	C171.516800,120.601654 170.574219,119.117012 167.901047,117.722427 
	C140.505630,103.430305 113.070267,89.200890 85.993065,74.322433 
	C79.164444,70.570229 73.721321,69.835457 67.837967,75.001465 
	C67.590721,75.218552 67.276466,75.358147 66.998672,75.541794 
	C63.769630,77.676514 63.906132,80.245613 67.392136,82.079865 
	C70.031677,83.468742 72.718163,84.768150 75.378349,86.118050 
	C104.120590,100.703178 132.864151,115.285751 161.592545,129.898087 
	C162.520813,130.370239 163.291351,131.152542 164.532303,132.090149 
	C161.965057,133.720245 159.896423,135.033737 157.207550,136.732178 
M166.358292,88.208290 
	C146.061981,77.634575 125.770203,67.052162 105.460640,56.503971 
	C103.867035,55.676296 101.525757,54.023087 100.595627,54.568264 
	C96.150291,57.173824 92.072044,60.405670 86.778168,64.190704 
	C115.771942,78.611893 142.546829,93.649551 171.393188,107.090431 
	C171.393188,102.804588 170.782837,99.831261 171.526306,97.247475 
	C172.875656,92.558083 171.224167,90.073524 166.358292,88.208290 
M105.721085,140.850250 
	C82.351044,128.278442 58.980999,115.706619 35.211262,102.919792 
	C34.926296,105.989952 34.756374,108.136238 34.523308,110.275650 
	C33.638515,118.397415 33.628357,118.401215 40.932056,122.370667 
	C43.262623,123.637291 45.608894,124.875084 47.950630,126.121094 
	C65.067696,135.228867 82.165604,144.373154 99.333794,153.383514 
	C101.041779,154.279892 103.642654,155.310333 105.030052,154.635559 
	C109.076775,152.667480 112.718323,149.866302 117.076256,147.028671 
	C113.028358,144.749100 109.731873,142.892670 105.721085,140.850250 
M297.670837,115.148987 
	C297.670837,116.772652 297.670837,118.396317 297.670837,120.172119 
	C308.004425,120.172119 317.854156,120.172119 327.626282,120.172119 
	C327.626282,117.893127 327.626282,115.988579 327.626282,113.643738 
	C320.222687,113.643738 313.133240,113.643738 305.953796,113.643738 
	C305.953796,109.930801 305.953796,106.667809 305.953796,102.881065 
	C312.557129,102.881065 318.955536,102.881065 325.454956,102.881065 
	C325.454956,100.437546 325.454956,98.530106 325.454956,96.075661 
	C318.803619,96.075661 312.413574,96.075661 306.019165,96.075661 
	C306.019165,92.927887 306.019165,90.337357 306.019165,87.175049 
	C313.155579,87.175049 320.021515,87.175049 326.899353,87.175049 
	C326.899353,84.823242 326.899353,83.049103 326.899353,81.072182 
	C317.149597,81.072182 307.593628,81.072182 297.670868,81.072182 
	C297.670868,92.292480 297.670868,103.255074 297.670837,115.148987 
M229.210388,83.701241 
	C223.683823,90.756821 225.402298,98.006302 233.613098,101.340622 
	C237.127686,102.767868 241.029510,103.276199 244.474030,104.826996 
	C246.251801,105.627380 247.413620,107.795906 248.853760,109.346268 
	C247.132767,110.917259 245.654343,113.303627 243.643906,113.901688 
	C238.269501,115.500496 235.677963,113.725990 231.658920,106.831398 
	C229.527802,107.047249 227.284973,107.274414 225.063965,107.499367 
	C225.715179,116.915138 231.041412,121.154633 241.502716,121.087830 
	C250.497513,121.030380 256.130859,117.015205 256.912140,110.104706 
	C257.688080,103.241562 253.642563,98.603531 244.805222,96.181252 
	C241.926407,95.392174 238.945038,94.816483 236.229919,93.637909 
	C233.706573,92.542580 232.708633,90.444672 235.109970,88.143135 
	C237.407669,85.940948 244.760910,86.106071 246.033081,88.870697 
	C248.401062,94.016762 252.144669,91.792259 255.758820,91.831383 
	C255.264496,86.171356 252.580627,82.481606 247.394043,80.986443 
	C241.259567,79.218025 235.241058,79.286858 229.210388,83.701241 
M364.389282,105.012268 
	C361.564850,97.907616 358.854126,90.753609 355.812134,83.743340 
	C355.258087,82.466522 353.370331,81.017326 352.065186,80.985085 
	C349.838013,80.930069 346.109192,81.312965 345.571411,82.590012 
	C340.386139,94.903999 335.735931,107.443291 330.694702,120.536255 
	C334.702820,119.797409 339.288269,122.963821 340.479126,116.860779 
	C341.363586,112.328102 343.877655,110.470032 348.509491,111.273849 
	C350.286377,111.582222 352.181641,111.496330 353.987549,111.285896 
	C357.092957,110.924019 358.772034,112.027771 359.860229,115.095932 
	C362.104828,121.424522 363.273865,121.799294 370.209869,119.572350 
	C368.380676,114.942650 366.555908,110.324059 364.389282,105.012268 
M711.489746,85.355835 
	C716.616394,85.355835 721.742981,85.355835 726.967285,85.355835 
	C726.967285,83.640038 726.967285,82.379257 726.967285,81.009888 
	C717.467163,81.009888 708.200439,81.009888 698.839050,81.009888 
	C698.839050,94.249184 698.839050,107.263046 698.839050,120.236732 
	C708.823303,120.236732 718.389954,120.236732 728.176086,120.236732 
	C728.099487,118.621498 728.039490,117.357430 727.964966,115.785660 
	C719.915894,115.785660 712.127869,115.785660 704.110718,115.785660 
	C704.110718,111.188026 704.110718,106.911133 704.110718,102.163002 
	C711.363037,102.163002 718.435974,102.163002 725.815430,102.163002 
	C725.724060,100.438477 725.658630,99.202950 725.575806,97.638191 
	C718.314087,97.638191 711.360229,97.638191 704.195435,97.638191 
	C704.195435,93.390488 704.195435,89.494057 704.195435,85.355789 
	C706.505737,85.355789 708.496704,85.355789 711.489746,85.355835 
M637.562927,80.804016 
	C635.159485,80.804016 632.756042,80.804016 630.355469,80.804016 
	C630.355469,94.416695 630.355469,107.189613 630.355469,120.361282 
	C636.185852,120.361282 641.808228,120.444794 647.427002,120.337624 
	C652.956177,120.232155 657.849243,118.553596 659.585266,112.731148 
	C660.294312,110.353371 660.207825,107.278442 659.288940,105.002922 
	C658.344604,102.664436 655.943359,100.914314 654.079956,98.793320 
	C657.903381,95.814690 659.444458,91.817909 657.497192,87.058029 
	C655.530579,82.251045 651.355469,80.843330 646.534912,80.810326 
	C643.869202,80.792076 641.203308,80.805092 637.562927,80.804016 
M568.778625,86.968048 
	C567.030212,83.413406 564.285522,81.093315 560.250366,81.013000 
	C552.967651,80.868042 545.679932,80.972000 538.280884,80.972000 
	C538.280884,94.252472 538.280884,107.275467 538.280884,120.606316 
	C540.093201,120.447693 541.503784,120.324234 543.327454,120.164619 
	C543.327454,114.232231 543.327454,108.641441 543.327454,103.357071 
	C551.389282,101.254112 556.682556,104.187737 560.224060,110.956047 
	C561.299072,113.010590 562.942200,114.779785 563.925171,116.867950 
	C565.676086,120.587387 568.329041,121.301071 572.758179,119.771111 
	C568.495056,113.694656 564.458618,107.941223 560.499023,102.297424 
	C568.641602,99.051407 570.695129,95.686737 568.778625,86.968048 
M742.024048,81.211525 
	C737.516785,83.300797 734.874451,86.744293 735.248657,91.792725 
	C735.636780,97.028732 739.436768,99.485420 743.946411,100.909721 
	C747.740479,102.108017 751.839050,102.560493 755.390320,104.223747 
	C757.395203,105.162735 759.970764,108.052589 759.762024,109.753441 
	C759.495850,111.921623 757.051392,114.760025 754.887451,115.587502 
	C747.430176,118.438980 741.188416,115.135254 738.242493,107.288475 
	C736.910278,107.454224 735.502136,107.629433 732.887695,107.954720 
	C734.565613,111.294876 735.438904,114.406425 737.361206,116.597656 
	C742.718018,122.703850 756.365356,122.842697 761.946655,116.961189 
	C763.453491,115.373306 764.607056,113.077354 765.050964,110.926483 
	C766.188599,105.414421 763.459656,101.177673 757.532654,99.130417 
	C753.148438,97.616051 748.516541,96.811554 744.150146,95.255348 
	C739.953674,93.759705 739.114502,90.060135 741.913513,87.079697 
	C745.697571,83.050385 755.823853,84.059464 758.051025,89.098564 
	C759.523560,92.430374 761.186646,92.689331 764.076477,91.456772 
	C763.740356,86.309105 761.178284,82.425117 756.472656,81.379364 
	C752.097900,80.407135 747.363831,81.051697 742.024048,81.211525 
M414.200439,80.798744 
	C413.318085,80.957794 412.435699,81.116852 411.263763,81.328102 
	C415.293671,87.709305 418.800201,93.955650 422.987030,99.706696 
	C427.676575,106.148224 423.848083,113.646782 426.021942,120.253891 
	C428.547272,120.253891 430.804962,120.253891 433.558990,120.253891 
	C433.558990,117.681053 433.771790,115.367661 433.518494,113.106461 
	C432.800507,106.696716 434.462006,101.133606 438.312592,95.922279 
	C441.704803,91.331299 444.523682,86.316696 447.639099,81.420998 
	C441.478180,79.461777 437.462708,81.004501 435.067902,86.860519 
	C433.771423,90.030739 431.645325,92.861710 429.644501,96.269814 
	C427.271759,92.304955 424.879730,88.931290 423.151794,85.246231 
	C421.402039,81.514595 418.827820,80.159729 414.200439,80.798744 
M498.271057,120.540123 
	C501.971558,121.406662 502.560089,118.651756 503.602722,116.163040 
	C504.710632,113.518433 505.738861,109.222374 507.538147,108.802505 
	C512.112610,107.735023 517.307678,107.622993 521.821777,108.794792 
	C523.774292,109.301636 525.004883,113.802162 525.948059,116.689598 
	C527.228882,120.610855 529.464417,121.369774 533.361328,119.896454 
	C528.282898,107.492630 523.353149,95.229713 518.142639,83.087242 
	C517.649963,81.939003 515.392456,80.978951 513.958496,80.984596 
	C512.820312,80.989090 511.114624,82.374039 510.642883,83.542496 
	C506.050659,94.917191 501.643005,106.366890 497.273590,117.829842 
	C496.994995,118.560753 497.470764,119.579208 498.271057,120.540123 
M292.536133,83.406166 
	C291.837708,82.545761 291.151764,80.948227 290.438965,80.936157 
	C280.686829,80.771049 270.930939,80.824936 261.210022,80.824936 
	C261.210022,83.256821 261.210022,85.148018 261.210022,87.558502 
	C265.080658,87.558502 268.659668,87.558502 272.742310,87.558502 
	C272.742310,98.791077 272.742310,109.509361 272.742310,120.135994 
	C275.694489,120.135994 278.086853,120.135994 280.969971,120.135994 
	C280.969971,109.018906 280.969971,98.302773 280.969971,87.327637 
	C284.118042,87.327637 286.775482,87.202026 289.415100,87.364899 
	C291.794250,87.511696 292.854187,86.654755 292.536133,83.406166 
M597.341675,112.771957 
	C598.131226,109.389969 599.988037,107.773132 603.705200,108.269562 
	C606.319763,108.618744 609.037720,108.537552 611.674744,108.285004 
	C614.739624,107.991493 616.300903,109.280647 617.034668,112.120468 
	C617.405334,113.554909 618.234192,114.872910 618.586914,116.309601 
	C619.583923,120.370590 621.867188,121.598976 626.015686,119.847511 
	C621.000977,107.621048 616.113892,95.498169 610.972107,83.484306 
	C610.446716,82.256676 608.388428,80.991302 607.051025,81.001442 
	C605.731567,81.011452 603.739929,82.334137 603.224060,83.572739 
	C600.167236,90.912766 597.454468,98.396057 594.624695,105.830673 
	C592.829346,110.547668 591.031738,115.263809 589.230713,119.992050 
	C596.147644,122.311478 595.498840,116.689560 597.341675,112.771957 
M464.119110,81.760735 
	C465.381104,85.011681 466.646179,88.261436 467.904541,91.513786 
	C471.314453,100.327049 474.639038,109.175316 478.228912,117.914635 
	C478.705780,119.075523 480.446899,120.188660 481.747528,120.390694 
	C482.791840,120.552902 484.735138,119.578186 485.119354,118.635239 
	C490.169556,106.241676 495.013611,93.764114 499.913116,81.297935 
	C495.980316,79.876778 494.008636,81.210175 493.103149,84.803238 
	C492.539093,87.041405 491.614563,89.192642 490.797455,91.362419 
	C487.908295,99.034508 484.995605,106.697746 481.798676,115.138466 
	C477.474365,103.091431 473.509125,92.044807 469.467529,80.785393 
	C467.644836,80.887482 466.007690,80.979172 464.119110,81.760735 
M688.992554,115.762032 
	C683.720154,115.762032 678.447754,115.762032 672.624634,115.762032 
	C672.624634,103.917770 672.624634,92.539650 672.624634,81.082130 
	C670.480164,81.082130 668.905518,81.082130 667.367188,81.082130 
	C667.367188,94.288208 667.367188,107.179260 667.367188,120.319794 
	C675.687805,120.319794 683.733032,120.319794 693.494324,120.319794 
	C691.753296,118.124306 690.819153,116.946335 688.992554,115.762032 
M584.074585,102.499008 
	C584.074585,95.395615 584.074585,88.292229 584.074585,80.822464 
	C582.036072,80.927124 580.511902,81.005379 579.182617,81.073624 
	C579.182617,94.468445 579.182617,107.343170 579.182617,120.510941 
	C580.968567,120.403877 582.381165,120.319199 584.074585,120.217682 
	C584.074585,114.428047 584.074585,108.962997 584.074585,102.499008 
z"/>
<path fill="#F8F9FA" opacity="1.000000" stroke="none" 
	d="
M157.517670,136.539703 
	C159.896423,135.033737 161.965057,133.720245 164.532303,132.090149 
	C163.291351,131.152542 162.520813,130.370239 161.592545,129.898087 
	C132.864151,115.285751 104.120590,100.703178 75.378349,86.118050 
	C72.718163,84.768150 70.031677,83.468742 67.392136,82.079865 
	C63.906132,80.245613 63.769630,77.676514 66.998672,75.541794 
	C67.276466,75.358147 67.590721,75.218552 67.837967,75.001465 
	C73.721321,69.835457 79.164444,70.570229 85.993065,74.322433 
	C113.070267,89.200890 140.505630,103.430305 167.901047,117.722427 
	C170.574219,119.117012 171.516800,120.601654 171.392426,123.460945 
	C171.197083,127.952393 170.979553,132.495880 171.440567,136.948059 
	C171.906616,141.448837 170.065018,143.775146 166.333099,145.970413 
	C150.734680,155.146072 135.368210,164.715668 119.789688,173.925980 
	C117.514114,175.271347 114.592705,175.733261 111.900291,176.130096 
	C96.675293,178.374130 83.349075,173.733521 70.579117,165.572769 
	C61.234097,159.600784 51.146011,154.744522 41.179691,149.814331 
	C37.029598,147.761337 35.100681,145.292969 35.557098,140.594116 
	C35.819294,137.894791 35.116703,135.101746 34.727840,131.114502 
	C59.065281,143.819595 82.389305,155.995651 106.204567,168.428162 
	C122.779739,158.127472 139.993637,147.429825 157.517670,136.539703 
z"/>
<path fill="#F7F9FA" opacity="1.000000" stroke="none" 
	d="
M134.831940,60.604530 
	C123.978836,54.872414 113.060875,49.257793 102.317474,43.326962 
	C99.573334,41.812077 97.764061,42.008629 95.141922,43.607960 
	C78.012299,54.055916 60.735725,64.262718 43.538242,74.600006 
	C42.057983,75.489777 40.803032,76.754364 39.227962,78.017654 
	C72.361191,95.950745 104.933281,113.580132 137.544495,131.230698 
	C131.684494,139.330215 125.311798,141.405014 118.162964,137.003967 
	C117.573433,134.089737 117.178154,131.866104 116.710228,129.233795 
	C114.882820,131.392929 113.699196,132.791397 112.515572,134.189880 
	C94.722374,124.552902 76.930267,114.913895 59.135464,105.279884 
	C51.246078,101.008614 43.268318,96.889435 35.525307,92.367905 
	C33.876873,91.405289 32.397526,89.131897 32.011364,87.225212 
	C30.959425,82.031258 30.327625,76.723648 29.988188,71.431633 
	C29.888374,69.875496 30.870001,67.509903 32.118484,66.719193 
	C48.949055,56.059803 65.896248,45.583588 82.882561,35.172974 
	C84.184364,34.375118 85.993233,34.133442 87.575081,34.104362 
	C111.115242,33.671562 111.114090,33.692997 131.682465,45.322952 
	C132.981323,46.057354 134.331024,46.701851 135.805832,48.110947 
	C135.580383,52.757317 135.206161,56.680923 134.831940,60.604530 
z"/>
<path fill="#F8F9FA" opacity="1.000000" stroke="none" 
	d="
M166.662384,88.438515 
	C171.224167,90.073524 172.875656,92.558083 171.526306,97.247475 
	C170.782837,99.831261 171.393188,102.804588 171.393188,107.090431 
	C142.546829,93.649551 115.771942,78.611893 86.778168,64.190704 
	C92.072044,60.405670 96.150291,57.173824 100.595627,54.568264 
	C101.525757,54.023087 103.867035,55.676296 105.460640,56.503971 
	C125.770203,67.052162 146.061981,77.634575 166.662384,88.438515 
z"/>
<path fill="#F6F8F9" opacity="1.000000" stroke="none" 
	d="
M106.078232,140.943253 
	C109.731873,142.892670 113.028358,144.749100 117.076256,147.028671 
	C112.718323,149.866302 109.076775,152.667480 105.030052,154.635559 
	C103.642654,155.310333 101.041779,154.279892 99.333794,153.383514 
	C82.165604,144.373154 65.067696,135.228867 47.950630,126.121094 
	C45.608894,124.875084 43.262623,123.637291 40.932056,122.370667 
	C33.628357,118.401215 33.638515,118.397415 34.523308,110.275650 
	C34.756374,108.136238 34.926296,105.989952 35.211262,102.919792 
	C58.980999,115.706619 82.351044,128.278442 106.078232,140.943253 
z"/>
<path fill="#F9F9FA" opacity="1.000000" stroke="none" 
	d="
M408.995361,108.048035 
	C407.598694,109.977264 406.488953,112.236343 404.738586,113.758934 
	C402.064484,116.084984 399.124786,119.246422 395.983032,119.659630 
	C389.170471,120.555588 382.158600,119.935768 375.145813,119.935768 
	C375.145813,107.064796 375.145813,94.160522 375.145813,81.007439 
	C381.974640,81.007439 388.609039,80.595901 395.169098,81.118202 
	C402.347229,81.689720 407.364441,88.491318 408.026825,97.205818 
	C408.251190,100.157593 408.723511,103.090523 409.500916,106.327026 
	C409.611359,107.097336 409.303345,107.572685 408.995361,108.048035 
M382.926605,108.352646 
	C382.926605,110.098679 382.926605,111.844704 382.926605,114.190895 
	C388.729492,112.985863 395.233582,116.133072 398.175323,109.509193 
	C400.855408,103.474411 401.475037,96.680374 397.623688,90.933266 
	C394.144836,85.742012 388.277069,87.653542 382.926605,87.354027 
	C382.926605,94.481804 382.926605,100.934433 382.926605,108.352646 
z"/>
<path fill="#F6F6F7" opacity="1.000000" stroke="none" 
	d="
M297.670837,114.683327 
	C297.670868,103.255074 297.670868,92.292480 297.670868,81.072182 
	C307.593628,81.072182 317.149597,81.072182 326.899353,81.072182 
	C326.899353,83.049103 326.899353,84.823242 326.899353,87.175049 
	C320.021515,87.175049 313.155579,87.175049 306.019165,87.175049 
	C306.019165,90.337357 306.019165,92.927887 306.019165,96.075661 
	C312.413574,96.075661 318.803619,96.075661 325.454956,96.075661 
	C325.454956,98.530106 325.454956,100.437546 325.454956,102.881065 
	C318.955536,102.881065 312.557129,102.881065 305.953796,102.881065 
	C305.953796,106.667809 305.953796,109.930801 305.953796,113.643738 
	C313.133240,113.643738 320.222687,113.643738 327.626282,113.643738 
	C327.626282,115.988579 327.626282,117.893127 327.626282,120.172119 
	C317.854156,120.172119 308.004425,120.172119 297.670837,120.172119 
	C297.670837,118.396317 297.670837,116.772652 297.670837,114.683327 
z"/>
<path fill="#F7F7F8" opacity="1.000000" stroke="none" 
	d="
M229.483109,83.439972 
	C235.241058,79.286858 241.259567,79.218025 247.394043,80.986443 
	C252.580627,82.481606 255.264496,86.171356 255.758820,91.831383 
	C252.144669,91.792259 248.401062,94.016762 246.033081,88.870697 
	C244.760910,86.106071 237.407669,85.940948 235.109970,88.143135 
	C232.708633,90.444672 233.706573,92.542580 236.229919,93.637909 
	C238.945038,94.816483 241.926407,95.392174 244.805222,96.181252 
	C253.642563,98.603531 257.688080,103.241562 256.912140,110.104706 
	C256.130859,117.015205 250.497513,121.030380 241.502716,121.087830 
	C231.041412,121.154633 225.715179,116.915138 225.063965,107.499367 
	C227.284973,107.274414 229.527802,107.047249 231.658920,106.831398 
	C235.677963,113.725990 238.269501,115.500496 243.643906,113.901688 
	C245.654343,113.303627 247.132767,110.917259 248.853760,109.346268 
	C247.413620,107.795906 246.251801,105.627380 244.474030,104.826996 
	C241.029510,103.276199 237.127686,102.767868 233.613098,101.340622 
	C225.402298,98.006302 223.683823,90.756821 229.483109,83.439972 
z"/>
<path fill="#F7F7F8" opacity="1.000000" stroke="none" 
	d="
M364.560211,105.358871 
	C366.555908,110.324059 368.380676,114.942650 370.209869,119.572350 
	C363.273865,121.799294 362.104828,121.424522 359.860229,115.095932 
	C358.772034,112.027771 357.092957,110.924019 353.987549,111.285896 
	C352.181641,111.496330 350.286377,111.582222 348.509491,111.273849 
	C343.877655,110.470032 341.363586,112.328102 340.479126,116.860779 
	C339.288269,122.963821 334.702820,119.797409 330.694702,120.536255 
	C335.735931,107.443291 340.386139,94.903999 345.571411,82.590012 
	C346.109192,81.312965 349.838013,80.930069 352.065186,80.985085 
	C353.370331,81.017326 355.258087,82.466522 355.812134,83.743340 
	C358.854126,90.753609 361.564850,97.907616 364.560211,105.358871 
M355.160126,103.733665 
	C353.699554,99.501022 352.238983,95.268379 350.352386,89.801109 
	C348.277893,95.568230 346.675751,100.022224 345.038879,104.572731 
	C348.656769,104.572731 351.795715,104.572731 355.160126,103.733665 
z"/>
<path fill="#EEEEF1" opacity="1.000000" stroke="none" 
	d="
M710.988708,85.355812 
	C708.496704,85.355789 706.505737,85.355789 704.195435,85.355789 
	C704.195435,89.494057 704.195435,93.390488 704.195435,97.638191 
	C711.360229,97.638191 718.314087,97.638191 725.575806,97.638191 
	C725.658630,99.202950 725.724060,100.438477 725.815430,102.163002 
	C718.435974,102.163002 711.363037,102.163002 704.110718,102.163002 
	C704.110718,106.911133 704.110718,111.188026 704.110718,115.785660 
	C712.127869,115.785660 719.915894,115.785660 727.964966,115.785660 
	C728.039490,117.357430 728.099487,118.621498 728.176086,120.236732 
	C718.389954,120.236732 708.823303,120.236732 698.839050,120.236732 
	C698.839050,107.263046 698.839050,94.249184 698.839050,81.009888 
	C708.200439,81.009888 717.467163,81.009888 726.967285,81.009888 
	C726.967285,82.379257 726.967285,83.640038 726.967285,85.355835 
	C721.742981,85.355835 716.616394,85.355835 710.988708,85.355812 
z"/>
<path fill="#F3F3F5" opacity="1.000000" stroke="none" 
	d="
M638.050171,80.804016 
	C641.203308,80.805092 643.869202,80.792076 646.534912,80.810326 
	C651.355469,80.843330 655.530579,82.251045 657.497192,87.058029 
	C659.444458,91.817909 657.903381,95.814690 654.079956,98.793320 
	C655.943359,100.914314 658.344604,102.664436 659.288940,105.002922 
	C660.207825,107.278442 660.294312,110.353371 659.585266,112.731148 
	C657.849243,118.553596 652.956177,120.232155 647.427002,120.337624 
	C641.808228,120.444794 636.185852,120.361282 630.355469,120.361282 
	C630.355469,107.189613 630.355469,94.416695 630.355469,80.804016 
	C632.756042,80.804016 635.159485,80.804016 638.050171,80.804016 
M654.768188,110.156059 
	C654.330872,104.539070 652.643616,102.556236 647.363037,102.197899 
	C643.599243,101.942474 639.804138,102.148315 635.889038,102.148315 
	C635.889038,106.870232 635.889038,111.239311 635.889038,115.814293 
	C639.927673,115.814293 643.577698,115.923393 647.218140,115.782326 
	C650.579163,115.652092 653.379150,114.427582 654.768188,110.156059 
M647.056335,97.184700 
	C650.927185,96.889008 653.259766,95.124100 653.039185,90.920662 
	C652.824951,86.838585 650.039734,85.682526 646.625488,85.536743 
	C643.067322,85.384804 639.497559,85.502846 635.894165,85.502846 
	C635.894165,89.648399 635.894165,93.321915 635.894165,97.286499 
	C639.580261,97.286499 642.870117,97.286499 647.056335,97.184700 
z"/>
<path fill="#F7F7F8" opacity="1.000000" stroke="none" 
	d="
M568.893005,87.333786 
	C570.695129,95.686737 568.641602,99.051407 560.499023,102.297424 
	C564.458618,107.941223 568.495056,113.694656 572.758179,119.771111 
	C568.329041,121.301071 565.676086,120.587387 563.925171,116.867950 
	C562.942200,114.779785 561.299072,113.010590 560.224060,110.956047 
	C556.682556,104.187737 551.389282,101.254112 543.327454,103.357071 
	C543.327454,108.641441 543.327454,114.232231 543.327454,120.164619 
	C541.503784,120.324234 540.093201,120.447693 538.280884,120.606316 
	C538.280884,107.275467 538.280884,94.252472 538.280884,80.972000 
	C545.679932,80.972000 552.967651,80.868042 560.250366,81.013000 
	C564.285522,81.093315 567.030212,83.413406 568.893005,87.333786 
M561.134216,96.932571 
	C562.060486,94.482277 564.224426,91.610245 563.572693,89.697563 
	C562.890015,87.693649 559.645203,85.686287 557.269531,85.323883 
	C552.768738,84.637314 548.088745,85.125282 543.351501,85.125282 
	C543.351501,89.684746 543.351501,93.746178 543.351501,98.559273 
	C549.230225,98.106819 554.790649,97.678871 561.134216,96.932571 
z"/>
<path fill="#F3F3F4" opacity="1.000000" stroke="none" 
	d="
M742.406006,81.097977 
	C747.363831,81.051697 752.097900,80.407135 756.472656,81.379364 
	C761.178284,82.425117 763.740356,86.309105 764.076477,91.456772 
	C761.186646,92.689331 759.523560,92.430374 758.051025,89.098564 
	C755.823853,84.059464 745.697571,83.050385 741.913513,87.079697 
	C739.114502,90.060135 739.953674,93.759705 744.150146,95.255348 
	C748.516541,96.811554 753.148438,97.616051 757.532654,99.130417 
	C763.459656,101.177673 766.188599,105.414421 765.050964,110.926483 
	C764.607056,113.077354 763.453491,115.373306 761.946655,116.961189 
	C756.365356,122.842697 742.718018,122.703850 737.361206,116.597656 
	C735.438904,114.406425 734.565613,111.294876 732.887695,107.954720 
	C735.502136,107.629433 736.910278,107.454224 738.242493,107.288475 
	C741.188416,115.135254 747.430176,118.438980 754.887451,115.587502 
	C757.051392,114.760025 759.495850,111.921623 759.762024,109.753441 
	C759.970764,108.052589 757.395203,105.162735 755.390320,104.223747 
	C751.839050,102.560493 747.740479,102.108017 743.946411,100.909721 
	C739.436768,99.485420 735.636780,97.028732 735.248657,91.792725 
	C734.874451,86.744293 737.516785,83.300797 742.406006,81.097977 
z"/>
<path fill="#F2F2F4" opacity="1.000000" stroke="none" 
	d="
M414.570374,80.798584 
	C418.827820,80.159729 421.402039,81.514595 423.151794,85.246231 
	C424.879730,88.931290 427.271759,92.304955 429.644501,96.269814 
	C431.645325,92.861710 433.771423,90.030739 435.067902,86.860519 
	C437.462708,81.004501 441.478180,79.461777 447.639099,81.420998 
	C444.523682,86.316696 441.704803,91.331299 438.312592,95.922279 
	C434.462006,101.133606 432.800507,106.696716 433.518494,113.106461 
	C433.771790,115.367661 433.558990,117.681053 433.558990,120.253891 
	C430.804962,120.253891 428.547272,120.253891 426.021942,120.253891 
	C423.848083,113.646782 427.676575,106.148224 422.987030,99.706696 
	C418.800201,93.955650 415.293671,87.709305 411.263763,81.328102 
	C412.435699,81.116852 413.318085,80.957794 414.570374,80.798584 
z"/>
<path fill="#F3F3F4" opacity="1.000000" stroke="none" 
	d="
M497.933350,120.502014 
	C497.470764,119.579208 496.994995,118.560753 497.273590,117.829842 
	C501.643005,106.366890 506.050659,94.917191 510.642883,83.542496 
	C511.114624,82.374039 512.820312,80.989090 513.958496,80.984596 
	C515.392456,80.978951 517.649963,81.939003 518.142639,83.087242 
	C523.353149,95.229713 528.282898,107.492630 533.361328,119.896454 
	C529.464417,121.369774 527.228882,120.610855 525.948059,116.689598 
	C525.004883,113.802162 523.774292,109.301636 521.821777,108.794792 
	C517.307678,107.622993 512.112610,107.735023 507.538147,108.802505 
	C505.738861,109.222374 504.710632,113.518433 503.602722,116.163040 
	C502.560089,118.651756 501.971558,121.406662 497.933350,120.502014 
M516.722656,91.906593 
	C516.025818,90.109581 515.328979,88.312576 514.449219,86.043907 
	C512.230164,92.211220 510.184021,97.897820 508.034485,103.871841 
	C512.506775,103.871841 516.588196,103.871841 521.123901,103.871841 
	C519.680603,99.968979 518.323608,96.299629 516.722656,91.906593 
z"/>
<path fill="#F6F6F7" opacity="1.000000" stroke="none" 
	d="
M292.537537,83.829773 
	C292.854187,86.654755 291.794250,87.511696 289.415100,87.364899 
	C286.775482,87.202026 284.118042,87.327637 280.969971,87.327637 
	C280.969971,98.302773 280.969971,109.018906 280.969971,120.135994 
	C278.086853,120.135994 275.694489,120.135994 272.742310,120.135994 
	C272.742310,109.509361 272.742310,98.791077 272.742310,87.558502 
	C268.659668,87.558502 265.080658,87.558502 261.210022,87.558502 
	C261.210022,85.148018 261.210022,83.256821 261.210022,80.824936 
	C270.930939,80.824936 280.686829,80.771049 290.438965,80.936157 
	C291.151764,80.948227 291.837708,82.545761 292.537537,83.829773 
z"/>
<path fill="#F3F3F5" opacity="1.000000" stroke="none" 
	d="
M597.218750,113.161041 
	C595.498840,116.689560 596.147644,122.311478 589.230713,119.992050 
	C591.031738,115.263809 592.829346,110.547668 594.624695,105.830673 
	C597.454468,98.396057 600.167236,90.912766 603.224060,83.572739 
	C603.739929,82.334137 605.731567,81.011452 607.051025,81.001442 
	C608.388428,80.991302 610.446716,82.256676 610.972107,83.484306 
	C616.113892,95.498169 621.000977,107.621048 626.015686,119.847511 
	C621.867188,121.598976 619.583923,120.370590 618.586914,116.309601 
	C618.234192,114.872910 617.405334,113.554909 617.034668,112.120468 
	C616.300903,109.280647 614.739624,107.991493 611.674744,108.285004 
	C609.037720,108.537552 606.319763,108.618744 603.705200,108.269562 
	C599.988037,107.773132 598.131226,109.389969 597.218750,113.161041 
M604.618164,93.087921 
	C603.334534,96.590714 602.050842,100.093506 600.693481,103.797577 
	C605.319214,103.797577 609.360046,103.797577 613.804993,103.797577 
	C611.618591,97.954361 609.573303,92.488358 607.131775,85.963219 
	C606.162354,88.777542 605.544983,90.569893 604.618164,93.087921 
z"/>
<path fill="#F4F7F6" opacity="1.000000" stroke="none" 
	d="
M135.069611,60.821823 
	C135.206161,56.680923 135.580383,52.757317 135.979065,48.411774 
	C145.695435,53.035095 155.404129,58.048874 165.050018,63.180660 
	C165.893494,63.629410 166.860931,64.857201 166.854568,65.716354 
	C166.826797,69.465996 166.460556,73.213135 166.166229,77.746132 
	C155.361465,71.896439 145.334366,66.467781 135.069611,60.821823 
z"/>
<path fill="#F3F3F4" opacity="1.000000" stroke="none" 
	d="
M464.244812,81.415802 
	C466.007690,80.979172 467.644836,80.887482 469.467529,80.785393 
	C473.509125,92.044807 477.474365,103.091431 481.798676,115.138466 
	C484.995605,106.697746 487.908295,99.034508 490.797455,91.362419 
	C491.614563,89.192642 492.539093,87.041405 493.103149,84.803238 
	C494.008636,81.210175 495.980316,79.876778 499.913116,81.297935 
	C495.013611,93.764114 490.169556,106.241676 485.119354,118.635239 
	C484.735138,119.578186 482.791840,120.552902 481.747528,120.390694 
	C480.446899,120.188660 478.705780,119.075523 478.228912,117.914635 
	C474.639038,109.175316 471.314453,100.327049 467.904541,91.513786 
	C466.646179,88.261436 465.381104,85.011681 464.244812,81.415802 
z"/>
<path fill="#E6E6E9" opacity="1.000000" stroke="none" 
	d="
M689.438782,115.765198 
	C690.819153,116.946335 691.753296,118.124306 693.494324,120.319794 
	C683.733032,120.319794 675.687805,120.319794 667.367188,120.319794 
	C667.367188,107.179260 667.367188,94.288208 667.367188,81.082130 
	C668.905518,81.082130 670.480164,81.082130 672.624634,81.082130 
	C672.624634,92.539650 672.624634,103.917770 672.624634,115.762032 
	C678.447754,115.762032 683.720154,115.762032 689.438782,115.765198 
z"/>
<path fill="#FCFCFD" opacity="1.000000" stroke="none" 
	d="
M584.074585,102.998482 
	C584.074585,108.962997 584.074585,114.428047 584.074585,120.217682 
	C582.381165,120.319199 580.968567,120.403877 579.182617,120.510941 
	C579.182617,107.343170 579.182617,94.468445 579.182617,81.073624 
	C580.511902,81.005379 582.036072,80.927124 584.074585,80.822464 
	C584.074585,88.292229 584.074585,95.395615 584.074585,102.998482 
z"/>
<path fill="#F4F8F7" opacity="1.000000" stroke="none" 
	d="
M112.735107,134.462097 
	C113.699196,132.791397 114.882820,131.392929 116.710228,129.233795 
	C117.178154,131.866104 117.573433,134.089737 117.957474,136.728500 
	C116.282372,136.340515 114.618507,135.537399 112.735107,134.462097 
z"/>
<path fill="#3B3B56" opacity="1.000000" stroke="none" 
	d="
M409.024292,108.434814 
	C409.303345,107.572685 409.611359,107.097336 409.939972,106.319160 
	C409.960602,106.016335 410.432922,105.941582 410.858582,106.252869 
	C411.859192,107.572762 412.434174,108.581375 413.009155,109.589981 
	C413.009155,109.589973 412.908478,109.547958 413.000610,109.854996 
	C413.136536,110.402817 413.180359,110.643585 413.224182,110.884361 
	C411.833862,110.196770 410.443573,109.509186 409.024292,108.434814 
z"/>
<path fill="#3B3B56" opacity="1.000000" stroke="none" 
	d="
M412.918030,106.230408 
	C413.408173,106.011658 413.898285,105.792900 414.388428,105.574150 
	C414.247192,106.258453 414.105988,106.942757 413.525818,107.572060 
	C413.030579,107.088173 412.974304,106.659294 412.918030,106.230408 
z"/>
<path fill="#E6E6E9" opacity="1.000000" stroke="none" 
	d="
M412.579712,106.204498 
	C412.974304,106.659294 413.030579,107.088173 413.317688,107.758636 
	C413.516083,108.284630 413.483551,108.569038 413.230103,109.221710 
	C412.434174,108.581375 411.859192,107.572762 411.097168,106.268105 
	C411.353851,106.040901 411.797607,106.109749 412.579712,106.204498 
z"/>
<path fill="#E6E6E9" opacity="1.000000" stroke="none" 
	d="
M413.475464,110.835907 
	C413.180359,110.643585 413.136536,110.402817 413.017090,109.802994 
	C413.203278,109.891785 413.465027,110.339622 413.475464,110.835907 
z"/>
<path fill="#30314D" opacity="1.000000" stroke="none" 
	d="
M382.926605,107.869858 
	C382.926605,100.934433 382.926605,94.481804 382.926605,87.354027 
	C388.277069,87.653542 394.144836,85.742012 397.623688,90.933266 
	C401.475037,96.680374 400.855408,103.474411 398.175323,109.509193 
	C395.233582,116.133072 388.729492,112.985863 382.926605,114.190895 
	C382.926605,111.844704 382.926605,110.098679 382.926605,107.869858 
z"/>
<path fill="#3B3B56" opacity="1.000000" stroke="none" 
	d="
M355.047394,104.153198 
	C351.795715,104.572731 348.656769,104.572731 345.038879,104.572731 
	C346.675751,100.022224 348.277893,95.568230 350.352386,89.801109 
	C352.238983,95.268379 353.699554,99.501022 355.047394,104.153198 
z"/>
<path fill="#353551" opacity="1.000000" stroke="none" 
	d="
M654.671936,110.532776 
	C653.379150,114.427582 650.579163,115.652092 647.218140,115.782326 
	C643.577698,115.923393 639.927673,115.814293 635.889038,115.814293 
	C635.889038,111.239311 635.889038,106.870232 635.889038,102.148315 
	C639.804138,102.148315 643.599243,101.942474 647.363037,102.197899 
	C652.643616,102.556236 654.330872,104.539070 654.671936,110.532776 
z"/>
<path fill="#353551" opacity="1.000000" stroke="none" 
	d="
M646.608154,97.235596 
	C642.870117,97.286499 639.580261,97.286499 635.894165,97.286499 
	C635.894165,93.321915 635.894165,89.648399 635.894165,85.502846 
	C639.497559,85.502846 643.067322,85.384804 646.625488,85.536743 
	C650.039734,85.682526 652.824951,86.838585 653.039185,90.920662 
	C653.259766,95.124100 650.927185,96.889008 646.608154,97.235596 
z"/>
<path fill="#30314D" opacity="1.000000" stroke="none" 
	d="
M560.742676,97.091743 
	C554.790649,97.678871 549.230225,98.106819 543.351501,98.559273 
	C543.351501,93.746178 543.351501,89.684746 543.351501,85.125282 
	C548.088745,85.125282 552.768738,84.637314 557.269531,85.323883 
	C559.645203,85.686287 562.890015,87.693649 563.572693,89.697563 
	C564.224426,91.610245 562.060486,94.482277 560.742676,97.091743 
z"/>
<path fill="#30314D" opacity="1.000000" stroke="none" 
	d="
M516.844604,92.268433 
	C518.323608,96.299629 519.680603,99.968979 521.123901,103.871841 
	C516.588196,103.871841 512.506775,103.871841 508.034485,103.871841 
	C510.184021,97.897820 512.230164,92.211220 514.449219,86.043907 
	C515.328979,88.312576 516.025818,90.109581 516.844604,92.268433 
z"/>
<path fill="#353551" opacity="1.000000" stroke="none" 
	d="
M604.772888,92.725082 
	C605.544983,90.569893 606.162354,88.777542 607.131775,85.963219 
	C609.573303,92.488358 611.618591,97.954361 613.804993,103.797577 
	C609.360046,103.797577 605.319214,103.797577 600.693481,103.797577 
	C602.050842,100.093506 603.334534,96.590714 604.772888,92.725082 
z"/>
</svg>