<svg width="1919" height="1302" viewBox="0 0 1919 1302" fill="none" xmlns="http://www.w3.org/2000/svg">
<path d="M-17.7364 611.985C2.28909 711.427 31.9706 808.602 70.8716 902.082C137.293 1062.16 229.887 1209.65 344.728 1338.29H336.136C161.6 1141.14 39.7541 901.722 -17.7364 642.965V611.985Z" fill="#FAFAFA"/>
<path d="M-17.7346 184.952C-13.244 111.622 -3.97028 38.6754 10.0254 -33.4053H18.2014C-1.06311 65.4835 -11.4632 165.946 -12.8707 266.747C-14.1507 350.217 -10.7106 424.673 -2.39062 494.378C8.62158 585.862 28.505 676.014 56.9693 763.518C85.0985 849.936 121.542 933.322 165.769 1012.46C220.169 1109.59 285.577 1203.24 365.769 1298.83C377.065 1312.29 388.484 1325.43 400.025 1338.28H389.177C379.257 1327.11 369.428 1315.72 359.689 1304.11C279.209 1208.11 213.529 1114.11 158.857 1016.55C114.367 936.913 77.7097 853.01 49.4174 766.056C20.7888 678.044 0.787384 587.369 -10.2947 495.355C-13.4947 468.898 -15.8947 441.758 -17.6707 413.739L-17.7346 184.952Z" fill="#FAFAFA"/>
<path d="M440.599 1338.29C418.135 1313.23 396.093 1286.81 374.471 1259.02C317.095 1185.33 243.015 1086.27 178.759 973.349C90.1192 817.147 34.5352 638.637 17.9912 457.264C10.8392 377.536 11.9753 299.191 14.0233 233.163C16.6424 143.755 25.6852 54.6617 41.0793 -33.4053H49.2072C33.7202 54.7447 24.629 143.934 22.0073 233.44C19.9753 299.24 18.8072 377.194 25.9592 456.548C42.3912 636.75 97.6233 814.072 185.687 969.314C249.687 1081.78 323.543 1180.53 380.743 1254.06C403.858 1283.77 427.426 1311.87 451.447 1338.37L440.599 1338.29Z" fill="#FAFAFA"/>
<path d="M488.232 1338.29C452.704 1298.98 419.438 1257.61 388.6 1214.39L377.016 1198.28C316.312 1113.93 253.544 1026.72 197.976 930.556C109.224 776.242 56.4885 599.424 45.4805 419.206C41.1445 345.352 44.6645 271.27 48.0725 199.645C51.6627 121.568 59.5953 43.76 71.8325 -33.4053H81.5444C69.2275 43.9164 61.2521 121.889 57.6565 200.133C54.2645 271.514 50.7445 345.319 55.0645 418.62C65.9765 597.325 118.264 772.646 206.264 925.626C261.576 1021.36 324.2 1108.38 384.76 1192.47L396.344 1208.58C428.705 1253.97 463.791 1297.29 501.4 1338.29H488.232Z" fill="#FAFAFA"/>
<path d="M535.001 1338.29C489.881 1290.57 447.385 1235.78 403.449 1169.24C384.249 1140.08 363.945 1110.48 344.361 1081.88C302.121 1020.16 258.457 956.346 217.961 887.34C173.318 810.514 138.503 728.206 114.361 642.412C90.187 557.357 76.572 469.56 73.833 381.067C72.233 322.491 76.2329 265.119 80.4089 204.315C81.2943 191.71 82.1529 178.986 82.9849 166.143C87.5609 95.6891 94.3929 29.466 103.625 -33.4053H113.337C104.041 29.6125 97.1609 96.0634 92.5369 166.728C91.7049 179.583 90.8462 192.317 89.9609 204.933C85.7849 265.494 81.8489 322.686 83.4009 380.66C86.1152 468.333 99.6066 555.315 123.561 639.581C147.469 724.617 181.961 806.199 226.201 882.345C266.505 951.041 310.089 1014.71 352.217 1076.3C371.833 1104.95 392.105 1134.56 411.417 1163.8C457.129 1233.02 501.225 1289.4 548.377 1338.29H535.001Z" fill="#FAFAFA"/>
<path d="M579.913 1338.29C507.801 1267.09 457.641 1191.14 417.513 1124.51C391.065 1080.57 363.001 1038.58 333.289 994.11C301.465 946.485 268.569 897.216 237.193 844.547C149.081 695.683 100.841 517.499 101.321 342.911C101.657 293.642 106.313 245.756 111.257 195.072C113.241 174.766 115.289 153.776 117.049 132.575C121.977 73.088 127.881 18.1407 134.905 -33.3896H146.201C139.113 18.4011 133.161 73.6738 128.185 133.551C126.425 154.834 124.377 175.856 122.393 196.211C117.481 246.651 112.793 294.26 112.505 342.976C112.025 515.449 159.705 691.583 246.761 838.673C277.977 891.082 310.761 940.22 342.537 987.732C372.329 1032.31 400.457 1074.44 427.049 1118.58C468.345 1187.13 520.329 1265.64 596.089 1338.24L579.913 1338.29Z" fill="#FAFAFA"/>
<path d="M627.241 1338.29C623.635 1335.1 620.062 1331.89 616.521 1328.66C536.409 1255.23 484.936 1175.87 432.296 1079.31C402.824 1025.25 369.272 974.52 333.752 920.793C308.536 882.654 282.456 843.213 257.128 801.348C212.309 726.349 178.649 645.019 157.241 559.999C135.823 476.742 126.529 390.74 129.657 304.739C131.257 261.605 136.808 220.016 142.6 175.97C145.8 151.076 149.256 125.335 151.928 99.0573C156.584 53.4983 161.529 9.42009 167.241 -33.4053H178.552C172.84 9.76179 167.769 54.2793 163.081 100.245C160.377 126.685 156.984 152.508 153.704 177.484C147.944 221.253 142.504 262.581 140.904 305.195C137.818 390.081 146.983 474.969 168.104 557.152C189.238 641.077 222.467 721.36 266.712 795.393C291.912 837.046 317.912 876.39 343.08 914.448C378.744 968.37 412.424 1019.3 442.12 1073.79C494.217 1169.35 545.097 1247.89 624.041 1320.2C630.782 1326.35 637.609 1332.38 644.521 1338.29H627.241Z" fill="#FAFAFA"/>
<path d="M678.298 1338.29C656.921 1321.81 636.443 1304.16 616.954 1285.41C534.906 1206.33 488.058 1117.82 447.098 1034.1C417.034 972.6 379.786 916.156 340.362 856.409C319.562 824.973 298.17 792.48 277.082 758.148C188.874 613.336 145.466 434.176 157.994 266.551C160.89 227.794 167.146 190.663 173.754 151.352C178.41 123.692 183.226 95.0546 186.826 65.5389C190.954 31.7114 195.034 -1.17235 199.274 -33.4053H210.57C206.282 -0.781845 202.138 32.6063 197.946 66.9382C194.314 96.7142 189.482 125.514 184.794 153.272C178.218 192.323 171.994 229.177 169.162 267.414C156.81 432.679 199.562 609.366 286.586 752.128C307.578 786.297 328.97 818.709 349.658 850.063C389.306 910.136 426.746 966.873 457.13 1029.04C497.626 1111.91 543.93 1199.35 624.602 1277.13C647.431 1299.09 671.642 1319.53 697.082 1338.29H678.298Z" fill="#FAFAFA"/>
<path d="M737.992 1338.29C694.503 1310.8 654.242 1278.35 617.992 1241.58C542.52 1165.1 502.984 1081.7 462.648 988.546C433.528 921.282 393.656 861.062 351.464 797.329C333.864 770.807 315.736 743.374 297.736 714.509C252.815 641.471 220.388 561.22 201.832 477.164C183.288 394.36 178.216 308.368 187.16 228.461C191.128 193.039 198.152 159.341 205.576 123.643C211.688 94.241 218.024 63.8304 222.552 32.1345C225.48 11.3889 228.424 -9.76346 231.272 -30.1511C231.416 -31.2412 231.576 -32.3151 231.72 -33.4053H241.416C241.208 -31.7782 240.984 -30.3138 240.776 -28.7843C237.928 -8.38042 234.984 12.7068 232.008 33.5338C227.448 65.5389 221.08 96.1122 214.936 125.677C207.56 161.115 200.536 194.601 196.664 229.567C187.848 308.384 192.856 393.254 211.16 475C229.476 557.976 261.481 637.197 305.816 709.302C323.752 738.037 341.864 765.405 359.384 791.878C401.832 855.986 441.928 916.547 471.384 984.608C511.384 1076.85 550.44 1159.33 624.728 1234.66C664.193 1274.72 708.48 1309.54 756.536 1338.29H737.992Z" fill="#FAFAFA"/>
<path d="M1680.34 1338.29C1691.21 1336.79 1702.09 1335.25 1712.76 1333.62C1791 1321.61 1873.37 1306.89 1951.85 1281.38V1291.63C1884.15 1313.38 1813.83 1327.23 1745.77 1338.29H1680.34Z" fill="#FAFAFA"/>
<path d="M813.017 1338.29C797.743 1331.38 782.719 1323.79 767.946 1315.51C712.482 1284.47 662.051 1244.92 618.425 1198.26C543.625 1118.37 511.482 1033.32 477.434 943.28C450.538 872.11 409.258 810.134 365.546 744.496C349.914 721.034 333.753 696.773 317.657 671.277C229.401 531.265 191.178 351.453 215.482 190.37C220.426 157.584 228.281 126.571 236.425 93.7363C244.057 63.3095 251.945 31.9064 257.417 -1.30282C259.156 -11.9658 260.873 -22.6396 262.569 -33.3242H272.282C270.522 -22.0972 268.719 -10.881 266.874 0.324287C261.354 33.8589 253.417 65.5223 245.737 96.1607C237.561 128.703 229.849 159.618 224.937 191.851C200.937 350.721 238.649 528.01 325.737 666.119C341.737 691.551 357.897 715.762 373.497 739.176C417.513 805.269 459.113 867.717 486.393 939.928C519.993 1029.03 551.897 1113.18 625.369 1191.67C668.321 1237.6 717.969 1276.53 772.569 1307.1C793.626 1318.87 815.374 1329.31 837.689 1338.37L813.017 1338.29Z" fill="#FAFAFA"/>
<path d="M1642.09 1292.6C1619.56 1295.25 1596.28 1297.99 1573.19 1301.34C1515.59 1309.67 1452.84 1321.78 1381.62 1338.29H1340.02C1347.29 1336.44 1354.6 1334.61 1361.98 1332.87C1440.73 1314.19 1509.4 1300.72 1571.8 1291.67C1595.02 1288.29 1618.38 1285.56 1640.95 1282.9C1657.96 1280.92 1675.53 1278.85 1692.58 1276.56C1783.11 1264.4 1871.43 1250.14 1951.78 1223.42V1233.73C1867.88 1261.39 1778.54 1274.87 1693.8 1286.24C1676.74 1288.53 1659.13 1290.6 1642.09 1292.6Z" fill="#FAFAFA"/>
<path d="M1673.45 1228.46C1659.5 1230.09 1645.18 1231.51 1631.32 1232.9C1606.52 1235.41 1580.89 1238.01 1555.43 1241.61C1493.27 1250.36 1426.76 1264.39 1352.07 1284.7C1331.42 1290.29 1311.16 1296.54 1291.58 1302.59C1260.06 1312.36 1230.28 1321.48 1198.78 1328.29C1179.45 1332.47 1160.14 1335.84 1140.86 1338.37H960.713C955.892 1337.72 951.092 1337.02 946.313 1336.26C882.738 1326.17 821.429 1304.69 765.241 1272.8C710.606 1241.81 661.361 1201.88 619.481 1154.62C550.937 1077.4 524.521 995.559 496.569 908.932L493.033 897.998C468.745 822.972 426.089 759.499 380.921 692.299C367.001 671.505 352.601 650.125 338.201 627.654C249.193 488.586 214.185 310.874 244.569 152.264C250.425 121.658 258.969 92.858 267.977 62.3661C276.985 31.8741 286.409 0.194416 292.825 -33.4053H300.985C300.985 -33.4053 300.985 -33.2751 300.985 -33.21C294.489 1.30085 284.985 33.5012 275.721 64.7091C266.761 94.9895 258.297 123.61 252.521 153.826C238.121 229.339 238.617 312.013 254.121 392.88C270.009 475.553 301.417 555.199 344.953 623.229C359.353 645.601 373.641 666.949 387.513 687.597C433.001 755.284 475.977 819.23 500.617 895.329L504.169 906.296C531.849 992.109 558.009 1073.17 625.417 1149.11C666.707 1195.71 715.261 1235.07 769.129 1265.63C824.49 1297.05 884.901 1318.22 947.545 1328.16C1029.15 1341.17 1113.05 1338.44 1197.15 1320.26C1228.31 1313.53 1257.95 1304.4 1289.29 1294.73C1308.94 1288.68 1329.29 1282.43 1350.09 1276.84C1425.08 1256.5 1491.91 1242.34 1554.39 1233.56C1579.99 1229.93 1605.72 1227.32 1630.6 1224.82C1644.43 1223.42 1658.73 1221.97 1672.62 1220.39C1753.11 1211.18 1853.31 1199.73 1941.72 1170.33C1945.15 1169.17 1948.54 1168.02 1951.91 1166.83V1175.42C1949.35 1176.31 1946.79 1177.19 1944.2 1178.05C1855 1207.67 1754.31 1219.17 1673.45 1228.46Z" fill="#FAFAFA"/>
<path d="M273 114.124C279.736 85.292 289 58.3471 298.808 29.824C305.848 9.33875 313.032 -11.6184 319.24 -33.4053H327.56C321.16 -10.6258 313.688 11.2099 306.36 32.5087C296.632 60.8203 287.432 87.5862 280.76 116.012C263.512 189.736 261.88 271.237 276.056 351.698C290.456 433.915 321.256 512.781 364.872 579.964C377.912 600.026 390.904 619.161 403.496 637.661C452.12 709.254 494.12 771.084 515.496 850.535C517.395 857.619 519.283 864.669 521.16 871.688C543.096 954.182 563.816 1032.09 625.928 1105.99C708.312 1203.83 820.824 1267.07 942.728 1284.11C1023.5 1295.4 1106.25 1290.28 1188.68 1268.9C1217.86 1261.33 1245.45 1251.55 1274.65 1241.24C1295.02 1234.01 1316.07 1226.59 1337.75 1219.89C1409.75 1197.78 1474.82 1182.92 1536.6 1174.49C1564.09 1170.72 1591.66 1168.42 1618.33 1166.21C1629.53 1165.28 1641.03 1164.32 1652.28 1163.28L1662.09 1162.37C1748.73 1154.23 1838.33 1145.98 1920.81 1120.07C1931.47 1116.71 1941.78 1113.12 1951.74 1109.28V1117.82C1860.76 1151.99 1758.23 1161.57 1662.81 1170.44L1653 1171.35C1641.8 1172.41 1630.17 1173.37 1618.98 1174.3C1592.41 1176.51 1564.94 1178.79 1537.67 1182.55C1476.31 1190.91 1411.69 1205.67 1340.07 1227.67C1318.55 1234.27 1297.58 1241.71 1277.29 1248.9C1247.91 1259.31 1220.17 1269.14 1190.65 1276.8C1137.16 1290.82 1082.17 1297.97 1026.94 1298.1C998.443 1298.11 969.981 1296.14 941.752 1292.2C817.88 1274.9 703.608 1210.66 619.944 1111.31C556.664 1036.03 535.72 957.241 513.528 873.852C511.651 866.812 509.768 859.761 507.88 852.699C486.776 774.598 445.144 713.24 396.92 642.298C384.328 623.749 371.32 604.582 358.216 584.455C314.008 516.409 282.872 436.388 268.2 353.13C253.832 271.579 255.48 188.938 273 114.124Z" fill="#FAFAFA"/>
<path d="M302.135 76.1964C309.719 48.9262 320.199 22.4044 330.311 -3.25504C334.231 -13.1804 338.199 -23.2033 342.039 -33.4053H348.887C344.759 -22.3735 340.487 -11.537 336.263 -0.863197C325.735 25.805 315.783 50.9926 308.295 77.9374C288.231 149.986 284.407 230.43 297.223 310.613C310.311 392.473 340.423 470.802 384.135 537.122C396.199 555.411 408.135 572.919 419.799 589.71C469.239 661.547 511.927 723.605 529.767 805.904C531.895 815.748 533.975 825.706 535.991 835.354C552.599 915.392 568.407 990.906 626.023 1063.46C705.447 1163.23 816.263 1226.27 938.023 1240.96C1017.06 1250.49 1100.98 1242.7 1180.7 1218.41C1208.23 1210.01 1234.1 1199.57 1261.51 1188.5C1282.31 1180.12 1303.74 1171.45 1325.98 1163.79C1395.29 1139.85 1458.5 1124.33 1519.21 1116.31C1548.09 1112.47 1577.06 1110.61 1605.1 1108.84C1614.2 1108.25 1623.27 1107.68 1632.3 1107.03L1656.17 1105.4C1754.73 1098.6 1861.3 1091.27 1951.86 1052.1V1059.24C1861 1097.76 1754.84 1105.1 1656.6 1111.86L1632.74 1113.49C1623.72 1114.14 1614.63 1114.71 1605.54 1115.3C1577.62 1117.07 1548.76 1118.91 1520.09 1122.73C1459.8 1130.69 1396.98 1146.11 1328.09 1169.92C1306.01 1177.55 1284.62 1186.19 1263.93 1194.54C1236.41 1205.65 1210.39 1216.15 1182.58 1224.62C1124.87 1242.26 1064.94 1251.28 1004.68 1251.4C982.173 1251.42 959.686 1250.08 937.335 1247.4C813.895 1232.51 701.607 1168.63 621.111 1067.54C562.519 993.834 546.615 917.507 529.783 836.721C527.783 827.089 525.703 817.196 523.575 807.319C505.975 726.289 463.671 664.736 414.615 593.453C402.999 576.563 390.983 559.105 378.887 540.767C334.615 473.682 304.215 394.458 290.967 311.671C277.927 230.576 281.815 149.14 302.135 76.1964Z" fill="#FAFAFA"/>
<path d="M330.505 38.0897C338.505 13.4879 349.017 -10.3329 359.305 -33.4053H366.329C355.129 -8.60821 344.713 14.8872 336.521 40.1236C313.689 110.349 307.721 189.654 319.113 269.448C330.777 350.803 360.121 428.448 403.913 493.988C415.241 510.893 426.473 527.002 437.337 542.573C487.401 614.345 530.633 676.321 544.537 761.191C546.521 773.297 548.361 785.597 550.137 797.426C561.849 875.43 572.921 949.121 626.457 1020.45C703 1121.94 811.801 1184.64 933.321 1196.95C1011.72 1204.9 1094.38 1194.57 1172.39 1167.09C1198.5 1157.88 1222.92 1146.77 1248.76 1134.99C1269.67 1125.45 1291.29 1115.59 1313.83 1106.9C1379.74 1081.47 1442.9 1064.79 1501.59 1057.31C1531.59 1053.45 1561.69 1052.18 1590.79 1050.93C1597.93 1050.64 1605.04 1050.32 1612.12 1049.99C1623.58 1049.45 1635.17 1048.94 1646.89 1048.46C1749.7 1044.1 1861.61 1039.31 1951.85 993.037V1000.44C1861.08 1045.87 1749.64 1050.6 1647.16 1054.95C1635.45 1055.45 1623.86 1055.94 1612.42 1056.49C1605.32 1056.84 1598.2 1057.13 1591.06 1057.44C1562.09 1058.67 1532.14 1059.94 1502.39 1063.77C1444.2 1071.19 1381.53 1087.73 1316.1 1112.99C1293.7 1121.61 1272.2 1131.42 1251.37 1140.92C1226.54 1152.31 1200.87 1163.95 1174.49 1173.24C1113.66 1194.78 1049.73 1205.87 985.321 1206.07C967.641 1206.07 950.121 1205.19 932.681 1203.44C809.481 1190.94 698.953 1127.32 621.545 1024.33C567.001 951.66 555.305 873.754 543.993 798.338C542.217 786.492 540.377 774.24 538.393 762.183C524.713 678.778 481.865 617.371 432.265 546.267C421.385 530.663 410.12 514.522 398.76 497.568C354.36 431.312 324.649 352.755 312.841 270.391C301.257 189.589 307.369 109.259 330.505 38.0897Z" fill="#FAFAFA"/>
<path d="M358.872 0.000808716C363.112 -11.3889 367.928 -22.437 373.016 -33.3711H380.072C374.568 -21.6722 369.432 -9.90825 364.856 2.31129C339.256 70.6497 331.064 148.865 341.112 228.283C351.352 309.183 380.008 386.113 423.96 450.692C434.744 466.508 445.416 481.607 455.736 496.17C506.2 567.486 549.864 629.121 559.64 716.301C561.24 730.245 562.504 744.433 563.752 758.15C570.44 831.223 577.368 906.802 627.224 977.305C661.561 1026.24 705.614 1067.31 756.536 1097.86C809.025 1129.29 867.871 1148.14 928.6 1152.97C1006.36 1159.33 1087.8 1146.46 1164.09 1115.79C1188.95 1105.78 1212.09 1093.97 1236.55 1081.46C1257.45 1070.78 1279.03 1059.75 1301.69 1050.02C1365.22 1022.75 1426.49 1005.36 1483.96 998.327C1514.89 994.503 1545.9 993.885 1575.88 993.283C1581.21 993.185 1586.55 993.071 1591.88 992.941C1606.06 992.616 1620.17 992.42 1635.08 992.225C1743.61 990.728 1862.68 989.085 1951.72 931.664V939.474C1861.8 995.626 1743.3 997.253 1635.18 998.734C1620.23 998.929 1606.12 999.124 1591.98 999.449C1586.64 999.58 1581.28 999.693 1575.88 999.791C1546.07 1000.39 1515.22 1001 1484.68 1004.79C1427.85 1011.75 1367.11 1028.98 1304.14 1056.02C1281.74 1065.66 1260.17 1076.64 1239.38 1087.26C1215.86 1099.29 1191.53 1111.67 1166.39 1121.84C1103.17 1147.46 1035.76 1160.77 967.704 1161.05C954.408 1161.05 941.16 1160.52 928.04 1159.43C866.34 1154.53 806.551 1135.39 753.224 1103.45C701.555 1072.45 656.859 1030.77 622.024 981.096C571.144 909.145 564.136 832.688 557.368 758.736C556.104 745.052 554.808 730.896 553.256 717.017C543.656 631.529 500.456 570.577 450.52 499.929C440.184 485.285 429.496 470.218 418.696 454.37C374.152 388.927 345.096 311.022 334.76 229.097C324.584 148.604 332.92 69.3643 358.872 0.000808716Z" fill="#FAFAFA"/>
<path d="M386.202 -33.4053H391.418C363.802 32.7365 353.722 108.917 362.202 187.116C371.018 267.658 399.002 343.969 443.146 407.833C453.53 422.835 463.786 437.121 473.69 450.902C524.458 521.502 568.298 582.486 573.674 671.489C574.618 686.962 575.13 702.745 575.642 718.024C578.01 790.056 580.442 864.545 627.082 934.656C660.794 985.259 703.162 1026.23 752.986 1056.41C804.869 1087.93 863.469 1106.24 923.802 1109.78C1001.11 1114.66 1081.43 1099.19 1156.06 1065.23C1179.96 1054.36 1203 1041.35 1225.27 1028.57C1245.96 1016.79 1267.35 1004.62 1289.91 993.883C1351.07 964.807 1410.46 946.697 1466.46 940.189C1492.06 937.146 1517.66 936.674 1542.67 936.674C1548.56 936.674 1554.43 936.674 1560.27 936.674H1571.77C1587.99 936.674 1604.3 936.999 1621.56 937.292C1737.51 939.294 1865.91 941.474 1951.83 866.562V873.071C1864.79 946.29 1737.02 944.159 1621.48 942.174C1604.23 941.881 1587.88 941.588 1571.75 941.555H1560.25C1529.85 941.425 1498.27 941.279 1466.99 944.989C1411.51 951.497 1352.62 969.395 1291.93 998.309C1269.53 1008.97 1248.22 1021.09 1227.61 1032.84C1205.21 1045.58 1182.11 1058.76 1158.07 1069.69C1091.74 1099.86 1020.97 1115.53 951.674 1115.51C942.266 1115.51 932.858 1115.23 923.53 1114.65C862.441 1111.07 803.106 1092.55 750.57 1060.64C700.122 1030.09 657.258 988.628 623.146 937.423C575.738 866.139 573.258 790.983 570.874 718.219C570.378 702.989 569.85 687.223 568.922 671.83C563.626 584.243 522.234 526.693 469.85 453.798C459.93 439.984 449.658 425.698 439.258 410.664C394.65 346.133 366.362 269.025 357.466 187.751C348.938 109.389 358.842 33.0619 386.202 -33.4053Z" fill="#FAFAFA"/>
<path d="M399.129 -33.4053H404.217C385.369 21.7047 378.489 82.8513 384.329 145.869C391.721 225.825 418.969 301.469 463.145 364.617C473.033 378.626 482.777 391.952 492.201 404.839C545.625 477.814 587.817 535.447 588.665 626.662C588.825 643.405 588.377 660.571 587.961 677.102C586.12 748.288 584.217 821.849 627.801 891.652C693.801 997.251 800.025 1060.74 919.177 1065.75C995.977 1069.01 1075.02 1051.11 1147.86 1013.9C1170.74 1002.21 1192.66 988.335 1213.99 974.846C1234.38 961.976 1255.45 948.666 1277.8 936.934C1336.7 906.019 1394.23 887.194 1448.84 881.06C1466.06 879.224 1483.37 878.366 1500.68 878.489C1515.42 878.489 1530.02 878.928 1544.41 879.384L1551.61 879.595C1569.34 880.132 1587.34 881.043 1606.38 881.987C1732.41 888.398 1873.64 895.492 1951.85 790.772V798.777C1871.62 900.276 1731.45 893.279 1606.14 886.95C1587.11 885.99 1569.14 885.095 1551.46 884.558L1544.26 884.346C1513.26 883.386 1481.18 882.394 1449.37 885.974C1395.35 892.043 1338.38 910.657 1280.01 941.295C1257.82 952.945 1236.81 966.206 1216.52 979.028C1195.18 992.516 1173.08 1006.46 1150.02 1018.24C1082.1 1052.88 1008.82 1070.99 936.937 1070.99C930.931 1070.99 924.947 1070.86 918.984 1070.6C798.233 1065.49 690.601 1001.19 623.689 894.158C579.385 823.167 581.305 748.841 583.161 676.988C583.577 660.424 584.025 643.323 583.865 626.662C583 537.09 541.24 479.995 488.36 407.751C478.921 394.848 469.161 381.506 459.241 367.448C414.569 303.6 387.017 227.127 379.545 146.341C373.705 83.2255 380.473 21.9488 399.129 -33.4053Z" fill="#FAFAFA"/>
<path d="M413.497 -33.4053H418.442C387.721 83.3557 410.665 219.528 483.065 321.303C492.761 334.857 502.265 347.711 511.577 360.142C565.113 432.077 607.401 488.895 603.577 581.738C602.841 599.554 601.289 617.892 599.801 635.611C593.849 706.065 587.705 778.894 628.329 848.436C691.225 955.988 795.529 1019.15 914.489 1021.82C990.729 1023.45 1068.57 1003.04 1139.61 962.659C1161.64 950.114 1182.7 935.437 1203.07 921.233C1223.03 907.305 1243.69 892.905 1265.69 880.165C1322.35 847.362 1378.04 827.853 1431.21 822.175C1444.38 820.82 1457.61 820.168 1470.84 820.222C1490.15 820.222 1509.34 821.361 1528.14 822.484L1531.43 822.679C1550.23 823.786 1569.48 825.429 1589.88 827.17C1725.1 838.674 1878.36 851.739 1943 709.416C1946.03 702.794 1948.99 696.009 1951.9 689.273V701.313C1950.39 704.714 1948.89 708.115 1947.37 711.467C1917.9 776.372 1867.74 815.341 1793.99 830.619C1729.8 843.913 1658.49 837.827 1589.53 831.954C1569.16 830.213 1549.95 828.569 1531.21 827.463L1527.91 827.268C1496.49 825.413 1463.91 823.493 1431.77 826.958C1379.26 832.556 1324.2 851.853 1268.11 884.33C1246.28 896.956 1225.72 911.307 1205.83 925.17C1185.37 939.44 1164.23 954.198 1141.99 966.824C1072.91 1006.15 997.401 1026.7 923.225 1026.7C920.281 1026.7 917.321 1026.7 914.377 1026.6C793.737 1023.92 687.977 959.893 624.201 850.877C582.793 780 589.001 706.357 595.017 635.139C596.505 617.469 598.057 599.196 598.777 581.445C602.537 490.327 560.713 434.143 507.753 362.99C498.489 350.542 488.921 337.672 479.177 324.069C406.217 221.611 382.921 84.4621 413.497 -33.4053Z" fill="#FAFAFA"/>
<path d="M432.872 -33.4053H436.152C428.234 2.65766 425.3 39.6672 427.432 76.5544C431.849 154.574 458.441 230.885 502.344 291.625C511.944 304.821 521.385 317.301 530.505 329.358C584.008 400.055 626.2 455.881 617.672 549.96C615.96 568.672 613.208 588.002 610.536 606.697C600.536 676.744 590.184 749.199 628.136 818.904C656.552 870.972 696.409 914.171 743.337 943.931C793.224 975.529 849.177 991.605 909.737 991.703H910.392C986.073 991.703 1062.58 968.679 1131.7 925.105C1153 911.682 1173.3 896.143 1192.82 881.174C1212.34 866.204 1232.41 850.812 1253.94 837.095C1308.34 802.503 1361.99 782.311 1413.61 777.104C1424.06 776.046 1434.41 775.623 1444.86 775.623C1467.26 775.623 1489.45 777.608 1511.13 779.561C1530.6 781.318 1550.79 783.775 1572.15 786.395C1638.81 794.53 1707.74 802.975 1769.19 791.78C1839.21 778.894 1885.96 741.958 1912.18 678.729C1916.23 668.967 1920.18 658.895 1923.96 649.148C1932.39 627.508 1941.02 605.412 1951.85 584.276V591.451C1942.39 610.733 1934.58 630.73 1927 650.353C1923.19 660.115 1919.26 670.203 1915.21 679.998C1888.52 744.318 1840.98 781.888 1769.88 794.856C1707.96 806.131 1638.79 797.687 1571.9 789.503C1550.55 786.883 1530.41 784.426 1510.98 782.669C1479.37 779.837 1446.7 776.892 1414.06 780.212C1362.94 785.37 1309.67 805.399 1255.77 839.731C1234.36 853.35 1214.3 868.759 1194.89 883.663C1175.48 898.567 1154.89 914.301 1133.51 927.806C1063.88 971.738 986.793 994.908 910.521 994.892H909.849C848.776 994.794 792.249 978.539 741.849 946.632C694.409 916.579 654.168 872.924 625.48 820.417C586.936 749.752 597.353 676.76 607.432 606.16C610.104 587.514 612.856 568.216 614.552 549.602C623.032 456.857 581.113 401.536 528.041 331.359C518.889 319.286 509.448 306.79 499.833 293.561C455.577 232.333 428.745 155.339 424.296 76.7496C422.141 39.8048 425.027 2.73433 432.872 -33.4053Z" fill="#FAFAFA"/>
<path d="M453.864 -33.4053H457.064C435.688 69.9646 457.944 185.261 522.2 272.783C531.8 285.686 541.096 297.857 550.152 309.637C603.8 379.114 646.024 434.062 632.6 529.377C629.865 548.903 625.8 569.095 621.864 588.637C607.864 658.309 593.385 730.341 628.824 800.16C655.625 852.911 694.232 896.517 740.456 926.277C789.592 957.908 845 973.3 905.145 972.096C1000.22 970.469 1076.34 930.996 1123.56 898.177C1144.2 883.81 1163.7 867.408 1182.55 851.544C1201.4 835.68 1220.95 819.197 1241.96 804.553C1294.07 768.09 1345.96 747.198 1396.09 742.447C1404.38 741.649 1412.71 741.324 1421 741.324C1445.93 741.324 1470.38 744.318 1491.03 746.856C1510.89 749.297 1531.7 752.649 1553.74 756.196C1615.53 766.17 1685.56 777.478 1745 768.236C1812.68 757.676 1857.08 721.961 1880.7 658.976C1884.28 649.441 1887.72 639.581 1891.05 630.046C1903 595.877 1915.37 560.423 1937.16 530.012C1941.71 523.691 1946.61 517.644 1951.85 511.902V516.784C1947.58 521.668 1943.56 526.768 1939.8 532.062C1918.22 562.017 1905.94 597.146 1894.06 631.185C1890.73 640.736 1887.27 650.613 1883.69 660.18C1859.69 724.321 1814.41 760.703 1745.45 771.409C1685.53 780.716 1615.22 769.375 1553.19 759.369C1531.19 755.822 1510.42 752.47 1490.62 750.029C1463.26 746.677 1429.19 742.496 1396.36 745.636C1346.76 750.338 1295.4 771.035 1243.74 807.173C1222.94 821.817 1203.4 838.088 1184.54 854.001C1165.67 869.914 1146.14 886.364 1125.34 900.813C1057.18 948.227 981.048 974.032 905.177 975.302C902.937 975.302 900.696 975.302 898.456 975.302C840.264 975.302 786.536 959.714 738.713 928.913C692.009 898.844 653.016 854.798 625.944 801.543C589.993 730.748 604.584 658.146 618.696 587.921C622.616 568.395 626.696 548.252 629.401 528.857C642.664 434.924 600.76 380.481 547.704 311.573C538.632 299.793 529.256 287.606 519.704 274.671C455 186.661 432.504 70.6318 453.864 -33.4053Z" fill="#FAFAFA"/>
<path d="M475.399 -33.4053H476.999C472.221 -8.21475 470.075 17.4191 470.599 43.0686C472.087 120.161 497.287 195.252 541.559 254.478C551.063 267.153 560.391 279.064 569.415 290.584C622.823 358.759 665.015 412.616 646.695 508.778C642.871 528.906 637.671 548.968 632.183 570.185C614.183 639.711 595.591 711.613 628.647 781.823C681.447 893.995 783.143 958.103 900.487 953.319C994.887 949.691 1069.72 907.045 1115.8 871.964C1135.75 856.653 1154.5 839.422 1172.65 822.728C1190.79 806.034 1209.96 788.412 1230.33 772.776C1280.14 734.555 1329.99 712.996 1378.52 708.717C1385.21 708.115 1391.88 707.854 1398.55 707.854C1422.46 707.854 1446.38 711.255 1470.71 715.079C1490.66 718.235 1511.83 722.515 1534.25 727.054C1594.49 739.241 1662.78 753.088 1720.47 745.782C1786.46 737.468 1828.81 702.762 1849.98 639.695C1853.18 630.274 1856.14 620.56 1859.03 611.156C1869.5 577.214 1880.31 542.118 1901.29 512.456C1915.1 493.287 1932.24 476.844 1951.86 463.935V465.888C1932.76 478.583 1916.07 494.678 1902.58 513.399C1881.78 542.85 1870.98 577.816 1860.55 611.644C1857.66 621.048 1854.65 630.795 1851.5 640.216C1830.1 703.933 1787.32 738.997 1720.66 747.393C1662.71 754.699 1594.26 740.885 1533.94 728.649C1511.54 724.109 1490.38 719.83 1470.46 716.69C1439.43 711.808 1409.08 707.643 1378.66 710.344C1330.42 714.591 1280.86 736.036 1231.3 774.061C1210.98 789.665 1192.04 807.075 1173.7 823.932C1155.37 840.789 1136.76 857.906 1116.74 873.266C1070.47 908.541 995.399 951.367 900.535 954.995C896.407 955.158 892.311 955.256 888.215 955.256C775.447 955.256 678.487 891.408 627.191 782.571C593.879 711.825 612.551 639.63 630.615 569.827C636.103 548.675 641.287 528.596 645.111 508.518C653.479 464.586 649.911 427.033 633.783 390.293C619.047 356.628 595.383 326.51 568.183 291.641C559.143 280.121 549.815 268.211 540.295 255.52C495.831 196.016 470.519 120.584 469.015 43.15C468.491 17.4743 470.631 -8.18599 475.399 -33.4053Z" fill="#FAFAFA"/>
<path d="M496.313 -33.4053H498.089C494.356 -12.6695 492.492 8.36943 492.521 29.4497C492.521 106.038 517.033 180.396 561.465 238.858C570.969 251.322 580.281 263.004 589.273 274.296C644.777 343.904 684.857 394.198 661.577 491.433C656.617 512.163 650.073 532.876 643.145 554.793C621.209 624.14 598.537 695.846 629.193 766.316C652.777 820.515 688.985 864.935 733.881 894.76C780.873 925.984 836.889 940.579 895.817 936.951C969.289 932.541 1044.49 901.024 1107.59 848.208C1127 831.823 1145.29 813.551 1162.9 795.848C1180.52 778.145 1198.71 759.857 1218.2 743.439C1265.78 703.38 1313.77 681.121 1360.82 677.281C1366.18 676.842 1371.56 676.646 1376.9 676.646C1401.98 676.646 1426.82 681.007 1450.41 685.612C1470.25 689.468 1491.56 694.707 1514.12 700.256C1572.89 714.688 1639.48 731.024 1695.48 725.753C1759.64 719.683 1799.85 686.116 1818.47 623.18C1821.24 613.84 1823.82 604.175 1826.3 594.836C1835.27 561.187 1844.55 526.416 1864.7 497.47C1883.9 469.923 1913.13 447.957 1951.8 431.832V433.59C1913.7 449.568 1884.94 471.273 1865.99 498.414C1846.02 527.067 1836.78 561.708 1827.8 595.21C1825.3 604.566 1822.73 614.231 1819.96 623.603C1801.13 687.288 1760.46 721.229 1695.64 727.347C1639.38 732.651 1572.65 716.283 1513.77 701.834C1491.22 696.286 1469.93 691.063 1450.12 687.19C1421.61 681.625 1391.24 676.419 1360.97 678.892C1314.25 682.699 1266.57 704.828 1219.24 744.676C1199.74 761.093 1181.56 779.349 1163.98 796.987C1146.39 814.625 1128.1 833.027 1108.57 849.429C1045.21 902.456 969.657 934.038 895.865 938.545C889.945 938.914 884.078 939.098 878.265 939.098C825.465 939.098 775.593 924.454 733.017 896.094C687.865 866.09 651.417 821.426 627.737 766.935C596.841 695.911 619.609 623.912 641.641 554.288C648.601 532.404 655.001 511.723 660.025 491.059C683.129 394.588 643.241 344.62 588.025 275.321C579.001 263.932 569.689 252.33 560.185 239.851C500.841 161.75 479.529 59.9905 496.313 -33.4053Z" fill="#FAFAFA"/>
<path d="M512.84 14.2363C513.138 -1.72723 514.56 -17.6486 517.096 -33.4053H518.696C516.147 -17.639 514.72 -1.70627 514.424 14.2689C513 90.3197 536.824 163.962 581.384 221.66C590.872 233.928 600.184 245.399 609.176 256.496C664.6 324.867 704.76 374.233 676.488 472.526C670.36 493.776 662.408 515.075 653.992 537.611C628.152 606.828 601.432 678.404 629.736 749.134C651.688 804 686.648 848.778 730.824 878.586C777.032 909.794 832.472 923.739 891.16 918.922C964.408 912.902 1038.36 878.782 1099.4 822.923C1118.49 805.432 1136.2 786.021 1153.37 767.244C1170.17 748.841 1187.54 729.82 1206.17 712.589C1251.53 670.691 1297.64 647.733 1343.21 644.349C1347.46 644.023 1351.72 643.877 1356.01 643.877C1382.02 643.877 1407.72 649.327 1430.25 654.632C1449.75 659.204 1471 665.387 1493.5 671.912C1576.09 695.911 1669.72 723.133 1730.94 687.564C1758.55 671.521 1776.89 644.528 1786.94 605.054C1789.32 595.714 1791.48 586.082 1793.58 576.742C1801.05 543.468 1808.78 509.055 1828.15 480.873C1852.44 445.549 1894.02 421.126 1951.78 408.191V409.818C1894.6 422.688 1853.46 446.867 1829.45 481.785C1810.25 509.689 1802.57 543.94 1795.13 577.068C1793.03 586.407 1790.87 596.072 1788.47 605.428C1778.41 644.804 1759.3 672.904 1731.69 688.948C1669.88 724.841 1575.91 697.539 1493 673.441C1470.6 666.933 1449.3 660.75 1429.83 656.178C1403.74 650.043 1373.38 643.698 1343.3 645.927C1298.1 649.295 1252.33 672.107 1207.22 713.761C1188.62 730.943 1171.26 749.948 1154.42 768.318C1137.26 787.111 1119.5 806.555 1100.36 824.095C1039.06 880.279 964.776 914.545 891.176 920.598C883.549 921.217 875.987 921.526 868.488 921.526C817.88 921.526 770.328 907.354 729.816 880.002C685.384 849.998 650.216 804.976 628.152 749.834C599.592 678.453 626.424 606.567 652.376 537.057C660.792 514.555 668.728 493.288 674.776 472.087C702.824 374.672 662.952 325.534 607.784 257.553C598.776 246.457 589.464 234.969 579.96 222.668C535.304 164.695 511.4 90.6614 512.84 14.2363Z" fill="#FAFAFA"/>
<path d="M-17.7346 767.993C46.0994 978.009 152.198 1172.22 293.817 1338.29H285.401C179.277 1213.17 93.0611 1071.93 29.8814 919.704C12.0894 876.911 -3.78259 833.549 -17.7346 789.617V767.993Z" fill="#FAFAFA"/>
<path d="M-17.7334 890.807C-12.3254 904.908 -6.72005 918.956 -0.917389 932.949C59.8756 1079.45 141.581 1216.03 241.562 1338.29H235.322C136.192 1216.43 55.1161 1080.49 -5.3334 934.771C-9.60007 924.553 -13.7334 914.297 -17.7334 904.003V890.807Z" fill="#FAFAFA"/>
<path d="M-17.734 995.021C37.4904 1117.64 107.239 1232.93 189.962 1338.34H183.834C104.07 1236.23 36.4042 1124.92 -17.766 1006.72L-17.734 995.021Z" fill="#FAFAFA"/>
<path d="M-17.7352 1091.67C26.7239 1178.24 78.4407 1260.76 136.841 1338.29H132.825C76.1478 1262.83 25.7852 1182.68 -17.7352 1098.67V1091.67Z" fill="#FAFAFA"/>
<path d="M-17.7352 1091.67C26.7239 1178.24 78.4407 1260.76 136.841 1338.29H132.825C76.1478 1262.83 25.7852 1182.68 -17.7352 1098.67V1091.67Z" fill="#FAFAFA"/>
<path d="M-17.7338 1179.89C1.6582 1213.81 22.1381 1247.04 43.7061 1279.57C56.8794 1299.41 70.4742 1318.98 84.4902 1338.29H80.5061C66.9807 1319.57 53.8289 1300.59 41.0502 1281.34C20.4742 1250.35 0.879539 1218.68 -17.7338 1186.32V1179.89Z" fill="#FAFAFA"/>
<path d="M-17.7355 1264.26C-9.31955 1277.67 -0.74897 1290.97 7.97637 1304.16C15.6137 1315.64 23.3791 1327.03 31.2725 1338.33H27.3684C19.9017 1327.61 12.5577 1316.81 5.33633 1305.93C-2.49301 1294.15 -10.1836 1282.27 -17.7355 1270.28V1264.26Z" fill="#FAFAFA"/>
</svg>
